<svg id="Layer_1" xmlns="http://www.w3.org/2000/svg" xmlns:xlink="http://www.w3.org/1999/xlink" viewBox="0 0 1280 410"><path fill-rule="evenodd" clip-rule="evenodd" fill="#B72028" d="M0 0h1280v410H0z"/><defs><path id="SVGID_1_" d="M0 0h1280v410H0z"/></defs><clipPath id="SVGID_2_"><use xlink:href="#SVGID_1_" overflow="visible"/></clipPath><g clip-path="url(#SVGID_2_)"><g opacity=".7"><path opacity=".5" fill="#B70505" d="M354.2 193.3h72.1v275.2h-72.1z"/><g opacity=".8"><linearGradient id="SVGID_3_" gradientUnits="userSpaceOnUse" x1="390.193" y1="228.053" x2="390.193" y2="155.866"><stop offset="0" stop-color="#ff3b57" stop-opacity="0"/><stop offset="1" stop-color="#ff3b57"/></linearGradient><circle fill-rule="evenodd" clip-rule="evenodd" fill="url(#SVGID_3_)" cx="390.2" cy="192" r="36.1"/></g></g><linearGradient id="SVGID_4_" gradientUnits="userSpaceOnUse" x1="458.732" y1="412.479" x2="458.732" y2="165.576"><stop offset="0" stop-color="#dd3749" stop-opacity="0"/><stop offset="1" stop-color="#dd3749"/></linearGradient><path fill-rule="evenodd" clip-rule="evenodd" fill="url(#SVGID_4_)" d="M438 209.5h41.5v329H438z"/><path opacity=".5" fill-rule="evenodd" clip-rule="evenodd" fill="#B70606" d="M396.5 167.6H438v373.1h-41.5z"/><linearGradient id="SVGID_5_" gradientUnits="userSpaceOnUse" x1="417.251" y1="280.421" x2="417.251" y2="125.408"><stop offset="0" stop-color="#ff3b57" stop-opacity="0"/><stop offset="1" stop-color="#ff3b57"/></linearGradient><path fill-rule="evenodd" clip-rule="evenodd" fill="url(#SVGID_5_)" d="M396.5 167.6H438v100.8h-41.5z"/><g fill-rule="evenodd" clip-rule="evenodd"><path fill="#E04848" d="M438 167.6l41.5-41.5h-20.1c-13.7 0-26.8 5.4-36.5 15.1l-26.4 26.4H438zM479.5 209.5L521 168h-41.5L438 209.5z"/><path fill="#DD3749" d="M479.5 126v42L438 209.5v-41.9z"/></g><g opacity=".8"><path opacity=".4" fill-rule="evenodd" clip-rule="evenodd" fill="#B70505" d="M956.9 326.5V256c0-18.7 15.2-33.9 33.9-33.9s33.9 15.2 33.9 33.9v70.5c0 18.7-15.2 33.9-33.9 33.9-18.7.1-33.9-15.1-33.9-33.9z"/><linearGradient id="SVGID_6_" gradientUnits="userSpaceOnUse" x1="4595.993" y1="6145.646" x2="4811.046" y2="6145.646" gradientTransform="rotate(90 5708.232 1428.306)"><stop offset="0" stop-color="#ff3b57"/><stop offset="1" stop-color="#ff3b57" stop-opacity="0"/></linearGradient><path fill-rule="evenodd" clip-rule="evenodd" fill="url(#SVGID_6_)" d="M956.9 497.2V350c0-18.7 15.2-33.9 33.9-33.9s33.9 15.2 33.9 33.9v147.2c0 18.7-15.2 33.9-33.9 33.9s-33.9-15.2-33.9-33.9z"/><linearGradient id="SVGID_7_" gradientUnits="userSpaceOnUse" x1="4524.666" y1="6145.773" x2="4612.719" y2="6145.773" gradientTransform="rotate(90 5708.232 1428.306)"><stop offset="0" stop-color="#ff3b57"/><stop offset="1" stop-color="#ff3b57" stop-opacity="0"/></linearGradient><path fill-rule="evenodd" clip-rule="evenodd" fill="url(#SVGID_7_)" d="M965.4 244.7h50.7v88.1h-50.7z"/></g><g opacity=".7"><path opacity=".3" fill-rule="evenodd" clip-rule="evenodd" fill="#E21515" d="M445.5 196.1v-70.5c0-18.7 15.2-33.9 33.9-33.9s33.9 15.2 33.9 33.9v70.5c0 18.7-15.2 33.9-33.9 33.9s-33.9-15.2-33.9-33.9z"/><linearGradient id="SVGID_8_" gradientUnits="userSpaceOnUse" x1="4511.426" y1="6649.071" x2="4726.48" y2="6649.071" gradientTransform="rotate(90 5708.232 1428.306)"><stop offset="0" stop-color="#ff3b57"/><stop offset="1" stop-color="#ff3b57" stop-opacity="0"/></linearGradient><path fill-rule="evenodd" clip-rule="evenodd" fill="url(#SVGID_8_)" d="M453.5 412.6V265.4c0-18.7 15.2-33.9 33.9-33.9s33.9 15.2 33.9 33.9v147.2c0 18.7-15.2 33.9-33.9 33.9-18.7.1-33.9-15.1-33.9-33.9z"/><linearGradient id="SVGID_9_" gradientUnits="userSpaceOnUse" x1="4394.225" y1="6657.197" x2="4538.132" y2="6657.197" gradientTransform="rotate(90 5708.232 1428.306)"><stop offset="0" stop-color="#ff3b57"/><stop offset="1" stop-color="#ff3b57" stop-opacity="0"/></linearGradient><path fill-rule="evenodd" clip-rule="evenodd" fill="url(#SVGID_9_)" d="M454 114.3h50.7v143.9H454z"/></g><path fill="#B70606" d="M540 141.1h60.3v378.6H540z"/><path fill="#E21515" d="M600.3 141.1l-48.2 48.2h-72.3l36.5-36.5c7.5-7.5 17.7-11.7 28.3-11.7h55.7z"/><path fill="#E04848" d="M479.7 189.4h72.4v330.4h-72.4z"/><linearGradient id="SVGID_10_" gradientUnits="userSpaceOnUse" x1="626.262" y1="280.613" x2="626.262" y2="40.616"><stop offset="0" stop-color="#ff3b57" stop-opacity="0"/><stop offset="1" stop-color="#ff3b57"/></linearGradient><circle fill-rule="evenodd" clip-rule="evenodd" fill="url(#SVGID_10_)" cx="626.3" cy="160.6" r="120"/><path fill-rule="evenodd" clip-rule="evenodd" fill="#B70606" d="M668.5 202.9l-73.6 73.6c-19.6-5.3-38.1-15.6-53.5-31s-25.7-33.9-31-53.5l73.6-73.6 84.5 84.5z"/><circle fill-rule="evenodd" clip-rule="evenodd" fill="#FF3B57" cx="626.3" cy="160.6" r="59.7"/><linearGradient id="SVGID_11_" gradientUnits="userSpaceOnUse" x1="510.208" y1="160.614" x2="676.528" y2="160.614"><stop offset="0" stop-color="#ff3b57" stop-opacity="0"/><stop offset="1" stop-color="#ff3b57"/></linearGradient><circle fill-rule="evenodd" clip-rule="evenodd" fill="url(#SVGID_11_)" cx="626.3" cy="160.6" r="78.6"/><linearGradient id="SVGID_12_" gradientUnits="userSpaceOnUse" x1="12481.911" y1="2617.183" x2="12558.85" y2="2617.183" gradientTransform="rotate(-90 5508.631 7284.569)"><stop offset="0" stop-color="#ff3b57"/><stop offset="1" stop-color="#ff3b57" stop-opacity="0"/></linearGradient><path fill-rule="evenodd" clip-rule="evenodd" fill="url(#SVGID_12_)" d="M802.8 234.4h76.9v76.9h-76.9z"/><path opacity=".4" fill-rule="evenodd" clip-rule="evenodd" fill="#B70505" d="M815.7 184.3v107c0 28.5-23.1 51.5-51.5 51.5-28.5 0-51.5-23.1-51.5-51.5v-107c0-28.5 23.1-51.5 51.5-51.5s51.5 23.1 51.5 51.5z"/><linearGradient id="SVGID_13_" gradientUnits="userSpaceOnUse" x1="12533.452" y1="2540.055" x2="12749.336" y2="2540.055" gradientTransform="rotate(-90 5508.631 7284.569)"><stop offset="0" stop-color="#ff3b57"/><stop offset="1" stop-color="#ff3b57" stop-opacity="0"/></linearGradient><path fill-rule="evenodd" clip-rule="evenodd" fill="url(#SVGID_13_)" d="M815.7 95.4v112.8c0 28.5-23.1 51.5-51.5 51.5-28.5 0-51.5-23.1-51.5-51.5V95.4c0-28.5 23.1-51.5 51.5-51.5s51.5 23 51.5 51.5z"/><linearGradient id="SVGID_14_" gradientUnits="userSpaceOnUse" x1="12481.897" y1="2628.769" x2="12581.286" y2="2628.769" gradientTransform="rotate(-90 5508.631 7284.569)"><stop offset="0" stop-color="#ff3b57"/><stop offset="1" stop-color="#ff3b57" stop-opacity="0"/></linearGradient><path fill-rule="evenodd" clip-rule="evenodd" fill="url(#SVGID_14_)" d="M904.4 263.5v47.8H801.3v-47.8c0-28.5 23.1-51.5 51.5-51.5 28.5-.1 51.6 23 51.6 51.5z"/><circle fill-rule="evenodd" clip-rule="evenodd" fill="#DD3749" cx="875.9" cy="311.1" r="3.8"/><circle fill-rule="evenodd" clip-rule="evenodd" fill="#DD3749" cx="875.9" cy="272.7" r="3.8"/><circle fill-rule="evenodd" clip-rule="evenodd" fill="#DD3749" cx="875.9" cy="234.4" r="3.8"/><circle fill-rule="evenodd" clip-rule="evenodd" fill="#FF8000" cx="875.9" cy="196" r="3.8"/><circle fill-rule="evenodd" clip-rule="evenodd" fill="#FFF" cx="875.9" cy="157.6" r="3.8"/><circle fill-rule="evenodd" clip-rule="evenodd" fill="#E04848" cx="875.9" cy="119.2" r="3.8"/><circle fill-rule="evenodd" clip-rule="evenodd" fill="#DD3749" cx="845" cy="119.2" r="3.8"/><g><circle fill-rule="evenodd" clip-rule="evenodd" fill="#FF3B57" cx="480.3" cy="114.7" r="3.8"/><circle fill-rule="evenodd" clip-rule="evenodd" fill="#FFF" cx="480.3" cy="83.2" r="3.8"/><path fill-rule="evenodd" clip-rule="evenodd" fill="#FF3B57" d="M476.5 83.2h7.7v31.5h-7.7z"/></g><g><circle fill-rule="evenodd" clip-rule="evenodd" fill="#E53C10" cx="841.2" cy="311.1" r="3.8"/><circle fill-rule="evenodd" clip-rule="evenodd" fill="#CA2224" cx="841.2" cy="253.5" r="3.8"/></g><g><circle fill-rule="evenodd" clip-rule="evenodd" fill="#FF3B57" cx="910.8" cy="161.4" r="3.8"/><circle fill-rule="evenodd" clip-rule="evenodd" fill="#FF3B57" cx="910.8" cy="84.6" r="3.8"/><path fill-rule="evenodd" clip-rule="evenodd" fill="#FF3B57" d="M907 84.6h7.7v76.8H907z"/></g><g opacity=".5"><linearGradient id="SVGID_15_" gradientUnits="userSpaceOnUse" x1="8822.406" y1="3602.187" x2="8901.235" y2="3602.187" gradientTransform="rotate(180 4514.978 1921.02)"><stop offset="0" stop-color="#ff3b57"/><stop offset="1" stop-color="#ff3b57" stop-opacity="0"/></linearGradient><path fill-rule="evenodd" clip-rule="evenodd" fill="url(#SVGID_15_)" d="M128.7 200.5h78.8v78.8h-78.8z"/><path opacity=".4" fill-rule="evenodd" clip-rule="evenodd" fill="#B70505" d="M77.5 266.1h109.7c29.2 0 52.8 23.6 52.8 52.8 0 29.2-23.6 52.8-52.8 52.8H77.5c-29.2 0-52.8-23.6-52.8-52.8 0-29.2 23.6-52.8 52.8-52.8z"/><linearGradient id="SVGID_16_" gradientUnits="userSpaceOnUse" x1="8867.714" y1="3523.164" x2="8998.077" y2="3523.164" gradientTransform="rotate(180 4514.978 1921.02)"><stop offset="0" stop-color="#ff3b57"/><stop offset="1" stop-color="#ff3b57" stop-opacity="0"/></linearGradient><path fill-rule="evenodd" clip-rule="evenodd" fill="url(#SVGID_16_)" d="M-13.6 266.1H102c29.2 0 52.8 23.6 52.8 52.8 0 29.2-23.6 52.8-52.8 52.8H-13.6c-29.2 0-52.8-23.6-52.8-52.8 0-29.2 23.6-52.8 52.8-52.8z"/><linearGradient id="SVGID_17_" gradientUnits="userSpaceOnUse" x1="10483.693" y1="-1461.951" x2="10585.526" y2="-1461.951" gradientTransform="translate(-10377.963 1666.348)"><stop offset="0" stop-color="#ff3b57"/><stop offset="1" stop-color="#ff3b57" stop-opacity="0"/></linearGradient><path opacity=".4" fill-rule="evenodd" clip-rule="evenodd" fill="url(#SVGID_17_)" d="M154.8 257.2h-49V151.6h49c29.2 0 52.8 23.6 52.8 52.8 0 29.2-23.7 52.8-52.8 52.8z"/><circle fill-rule="evenodd" clip-rule="evenodd" fill="#FF3B57" cx="68.1" cy="204.4" r="3.9"/><circle fill-rule="evenodd" clip-rule="evenodd" fill="#FF3B57" cx="28.7" cy="204.4" r="3.9"/><circle fill-rule="evenodd" clip-rule="evenodd" fill="#FF3B57" cx="28.7" cy="236" r="3.9"/><circle fill-rule="evenodd" clip-rule="evenodd" fill="#FF3B57" cx="117.9" cy="574.5" r="3.9"/><circle fill-rule="evenodd" clip-rule="evenodd" fill="#FF3B57" cx="85.7" cy="574.5" r="3.9"/><path fill-rule="evenodd" clip-rule="evenodd" fill="#FF3B57" d="M85.7 570.6H118v7.9H85.7z"/><g><circle fill-rule="evenodd" clip-rule="evenodd" fill="#E53C10" cx="266.5" cy="239.9" r="3.9"/><circle fill-rule="evenodd" clip-rule="evenodd" fill="#CA2224" cx="207.6" cy="239.9" r="3.9"/></g><g><circle fill-rule="evenodd" clip-rule="evenodd" fill="#FF3B57" cx="141.1" cy="163.2" r="3.9"/><circle fill-rule="evenodd" clip-rule="evenodd" fill="#FF3B57" cx="62.5" cy="163.2" r="3.9"/><path fill-rule="evenodd" clip-rule="evenodd" fill="#FF3B57" d="M62.5 159.3h78.7v7.9H62.5z"/></g><linearGradient id="SVGID_18_" gradientUnits="userSpaceOnUse" x1="8822.406" y1="3523.36" x2="8901.235" y2="3523.36" gradientTransform="rotate(180 4514.978 1921.02)"><stop offset="0" stop-color="#ff3b57"/><stop offset="1" stop-color="#ff3b57" stop-opacity="0"/></linearGradient><path fill-rule="evenodd" clip-rule="evenodd" fill="url(#SVGID_18_)" d="M128.7 279.2h78.8v78.9h-78.8z"/></g><g><path fill="#E04848" d="M749 283.3h41.3v242.6H749z"/><linearGradient id="SVGID_19_" gradientUnits="userSpaceOnUse" x1="734.969" y1="525.879" x2="734.969" y2="254.97"><stop offset="0" stop-color="#ff3b57" stop-opacity="0"/><stop offset="1" stop-color="#ff3b57"/></linearGradient><path fill="url(#SVGID_19_)" d="M720.9 255H749v270.9h-28.1z"/><path fill="#E53C10" d="M720.9 255.5l27.8 27.8h41.7l-21.1-21.1c-4.3-4.3-10.2-6.7-16.3-6.7h-32.1z"/><g><path fill="#B70606" d="M600.3 195.3h60.3v324.4h-60.3z"/><path fill="#E21515" d="M600.3 195.3l48.2 48.2h72.3L684.4 207c-7.5-7.5-17.7-11.7-28.3-11.7h-55.8z"/><path fill="#E04848" d="M648.5 243.5h72.4v276.2h-72.4z"/><path fill="#E04848" d="M648.5 243.5h72.4v276.2h-72.4z"/></g><path fill="#B70606" d="M830.8 252.9h72.1v275.2h-72.1z"/><g><linearGradient id="SVGID_20_" gradientUnits="userSpaceOnUse" x1="830.722" y1="251.499" x2="953.709" y2="251.499"><stop offset="0" stop-color="#ff3b57"/><stop offset="1" stop-color="#ff3b57" stop-opacity="0"/></linearGradient><circle fill-rule="evenodd" clip-rule="evenodd" fill="url(#SVGID_20_)" cx="866.8" cy="251.5" r="36.1"/><path fill-rule="evenodd" clip-rule="evenodd" fill="#B70606" d="M861.9 251.5h10.2v37.8h-10.2z"/><circle fill-rule="evenodd" clip-rule="evenodd" fill="#E21515" cx="866.8" cy="251.5" r="5"/></g></g><g><circle fill-rule="evenodd" clip-rule="evenodd" fill="#FF8000" cx="882.5" cy="307" r="3.8"/><circle fill-rule="evenodd" clip-rule="evenodd" fill="#FF8000" cx="882.5" cy="275.5" r="3.8"/><path fill-rule="evenodd" clip-rule="evenodd" fill="#FF8000" d="M878.6 275.5h7.7V307h-7.7z"/></g><g><circle fill-rule="evenodd" clip-rule="evenodd" fill="#FF3B57" cx="438" cy="334.6" r="3.8"/><circle fill-rule="evenodd" clip-rule="evenodd" fill="#FF3B57" cx="438" cy="303.1" r="3.8"/><path fill-rule="evenodd" clip-rule="evenodd" fill="#FF3B57" d="M434.1 303.1h7.7v31.5h-7.7z"/></g><linearGradient id="SVGID_21_" gradientUnits="userSpaceOnUse" x1="878.631" y1="516.253" x2="878.631" y2="336.016"><stop offset="0" stop-color="#dd3749"/><stop offset="1" stop-color="#dd3749" stop-opacity="0"/></linearGradient><path fill-rule="evenodd" clip-rule="evenodd" fill="url(#SVGID_21_)" d="M830.8 336h95.7v180.2h-95.7z"/><g fill-rule="evenodd" clip-rule="evenodd"><path fill="#E04848" d="M870.9 362.4l-40.3-40.3h40.3l40.3 40.3z"/><path fill="#FF3B57" d="M830.7 403.1l-40.3-40.3h40.2l40.3 40.3z"/><path fill="#B70606" d="M870.9 362.4h40.2v153.5h-40.2z"/><path fill="#CA2224" d="M830.6 322.1v40.7l40.3 40.3v-40.7z"/></g><path fill-rule="evenodd" clip-rule="evenodd" fill="#FF3B57" d="M844 164v-11c-30.7 0-55.5 24.8-55.5 55.5h11.1c-.1-24.6 19.8-44.5 44.4-44.5z"/><g><linearGradient id="SVGID_22_" gradientUnits="userSpaceOnUse" x1="349.268" y1="587.04" x2="349.268" y2="336.318"><stop offset="0" stop-color="#dd3749"/><stop offset="1" stop-color="#dd3749" stop-opacity="0"/></linearGradient><path fill-rule="evenodd" clip-rule="evenodd" fill="url(#SVGID_22_)" d="M333.5 336.3h31.6V587h-31.6z"/><path fill-rule="evenodd" clip-rule="evenodd" fill="#B70606" d="M301.8 303.9h31.6v284.8h-31.6z"/><g fill-rule="evenodd" clip-rule="evenodd"><path fill="#E04848" d="M333.4 304.3l31.6-31.6h-15.3c-10.4 0-20.4 4.1-27.8 11.5l-20.1 20.1h31.6z"/><path fill="#FF3B57" d="M365.1 336.3l31.6-31.6h-31.6l-31.6 31.6z"/><path fill="#B70606" d="M365.1 272.7v32l-31.6 31.6v-32z"/></g></g><path fill-rule="evenodd" clip-rule="evenodd" fill="#E53C10" d="M380.6 235.6h-6.9c0 19 15.4 34.4 34.4 34.4v-6.9c-15.2 0-27.5-12.3-27.5-27.5z"/><g fill-rule="evenodd" clip-rule="evenodd"><path fill="#B70606" d="M911 217.9h24.1v60.3H911z"/><path fill="#E21515" d="M911 205.3h24.1v12.6H911z"/><path fill="#FF3B57" d="M935.1 205.3H911v-12.6h11.5c7 .1 12.6 5.7 12.6 12.6z"/></g><g><circle fill-rule="evenodd" clip-rule="evenodd" fill="#FF3B57" cx="600.3" cy="476.5" r="5.9"/><circle fill-rule="evenodd" clip-rule="evenodd" fill="#FF3B57" cx="600.3" cy="358.8" r="5.9"/><path fill-rule="evenodd" clip-rule="evenodd" fill="#FF3B57" d="M594.4 358.8h11.8v117.7h-11.8z"/></g><g><circle fill-rule="evenodd" clip-rule="evenodd" fill="#E53C10" cx="600.3" cy="331.9" r="3.8"/><circle fill-rule="evenodd" clip-rule="evenodd" fill="#FFF" cx="600.3" cy="293.5" r="3.8"/><circle fill-rule="evenodd" clip-rule="evenodd" fill="#DD3749" cx="600.3" cy="255.1" r="3.8"/></g><g opacity=".8"><path fill="#B70606" d="M937.5 304.3h38.9v228.2h-38.9z"/><linearGradient id="SVGID_23_" gradientUnits="userSpaceOnUse" x1="924.276" y1="532.534" x2="924.276" y2="278.226"><stop offset="0" stop-color="#ff3b57" stop-opacity="0"/><stop offset="1" stop-color="#ff3b57"/></linearGradient><path fill="url(#SVGID_23_)" d="M911 278.2h26.5v254.3H911z"/><path fill="#E53C10" d="M911 278.2l26.2 26.2h39.2l-19.8-19.8c-4.1-4.1-9.6-6.3-15.3-6.3H911z"/></g><g opacity=".5"><path opacity=".4" fill-rule="evenodd" clip-rule="evenodd" fill="#B70505" d="M1070.8 415.6v-70.5c0-18.7 15.2-33.9 33.9-33.9s33.9 15.2 33.9 33.9v70.5c0 18.7-15.2 33.9-33.9 33.9s-33.9-15.2-33.9-33.9z"/><linearGradient id="SVGID_24_" gradientUnits="userSpaceOnUse" x1="4685.058" y1="6031.807" x2="4900.111" y2="6031.807" gradientTransform="rotate(90 5708.232 1428.306)"><stop offset="0" stop-color="#ff3b57"/><stop offset="1" stop-color="#ff3b57" stop-opacity="0"/></linearGradient><path fill-rule="evenodd" clip-rule="evenodd" fill="url(#SVGID_24_)" d="M1070.8 586.2V439.1c0-18.7 15.2-33.9 33.9-33.9s33.9 15.2 33.9 33.9v147.2c0 18.7-15.2 33.9-33.9 33.9s-33.9-15.2-33.9-34z"/><linearGradient id="SVGID_25_" gradientUnits="userSpaceOnUse" x1="4613.731" y1="6031.933" x2="4701.784" y2="6031.933" gradientTransform="rotate(90 5708.232 1428.306)"><stop offset="0" stop-color="#ff3b57"/><stop offset="1" stop-color="#ff3b57" stop-opacity="0"/></linearGradient><path fill-rule="evenodd" clip-rule="evenodd" fill="url(#SVGID_25_)" d="M1079.3 333.8h50.7v88.1h-50.7z"/></g><g opacity=".5"><path fill="#B70606" d="M1051.4 393.4h38.9v228.2h-38.9z"/><linearGradient id="SVGID_26_" gradientUnits="userSpaceOnUse" x1="1038.116" y1="621.598" x2="1038.116" y2="367.291"><stop offset="0" stop-color="#ff3b57" stop-opacity="0"/><stop offset="1" stop-color="#ff3b57"/></linearGradient><path fill="url(#SVGID_26_)" d="M1024.9 367.3h26.5v254.3h-26.5z"/><path fill="#E53C10" d="M1024.8 367.2l26.2 26.2h39.2l-19.8-19.8c-4.1-4.1-9.6-6.3-15.3-6.3h-30.3z"/></g><g><path opacity=".6" fill-rule="evenodd" clip-rule="evenodd" fill="#B70505" d="M334 340.6v70.5c0 18.7-15.2 33.9-33.9 33.9s-33.9-15.2-33.9-33.9v-70.5c0-18.7 15.2-33.9 33.9-33.9 18.7-.1 33.9 15.1 33.9 33.9z"/><linearGradient id="SVGID_27_" gradientUnits="userSpaceOnUse" x1="12402.965" y1="2076.012" x2="12545.146" y2="2076.012" gradientTransform="rotate(-90 5508.631 7284.569)"><stop offset="0" stop-color="#ff3b57"/><stop offset="1" stop-color="#ff3b57" stop-opacity="0"/></linearGradient><path fill-rule="evenodd" clip-rule="evenodd" fill="url(#SVGID_27_)" d="M334 282v74.3c0 18.7-15.2 33.9-33.9 33.9s-33.9-15.2-33.9-33.9V282c0-18.7 15.2-33.9 33.9-33.9S334 263.3 334 282z"/><linearGradient id="SVGID_28_" gradientUnits="userSpaceOnUse" x1="12369.02" y1="2076.138" x2="12419.691" y2="2076.138" gradientTransform="rotate(-90 5508.631 7284.569)"><stop offset="0" stop-color="#ff3b57"/><stop offset="1" stop-color="#ff3b57" stop-opacity="0"/></linearGradient><path fill-rule="evenodd" clip-rule="evenodd" fill="url(#SVGID_28_)" d="M274.9 373.5h50.7v50.7h-50.7z"/></g><g fill-rule="evenodd" clip-rule="evenodd"><circle fill="#FF3B57" cx="1237" cy="218.5" r="27.6"/><path fill="#B70606" d="M1264.6 218.5c0 15.2-12.4 27.6-27.6 27.6s-27.6-12.4-27.6-27.6h55.2z"/><path fill="#E53C10" d="M1237 246.1v-27.6h-27.7c.1 15.3 12.4 27.6 27.7 27.6z"/><path fill="#E21515" d="M1257.7 218.5h-41.4c0 15.2 9.3 27.6 20.7 27.6s20.7-12.3 20.7-27.6z"/><path fill="#E21515" d="M1237 246.1v-27.6h-20.7c0 15.3 9.2 27.6 20.7 27.6z"/></g></g><g clip-path="url(#SVGID_2_)"><path fill="#E21515" d="M278.8 424.8h-24.3c-1.3 0-2.3-1.1-2.3-2.3 0-1.3 1.1-2.3 2.3-2.3h24.3c1.3 0 2.3 1.1 2.3 2.3.1 1.3-1 2.3-2.3 2.3zM278.8 418.2h-24.3c-1.3 0-2.3-1.1-2.3-2.3 0-1.3 1.1-2.3 2.3-2.3h24.3c1.3 0 2.3 1.1 2.3 2.3.1 1.3-1 2.3-2.3 2.3zM278.8 297.2h-24.3c-1.3 0-2.3-1.1-2.3-2.3 0-1.3 1.1-2.3 2.3-2.3h24.3c1.3 0 2.3 1.1 2.3 2.3.1 1.2-1 2.3-2.3 2.3zM278.8 290.5h-24.3c-1.3 0-2.3-1.1-2.3-2.3 0-1.3 1.1-2.3 2.3-2.3h24.3c1.3 0 2.3 1.1 2.3 2.3.1 1.3-1 2.3-2.3 2.3zM278.8 283.9h-24.3c-1.3 0-2.3-1.1-2.3-2.3 0-1.3 1.1-2.3 2.3-2.3h24.3c1.3 0 2.3 1.1 2.3 2.3.1 1.3-1 2.3-2.3 2.3zM278.8 277.3h-24.3c-1.3 0-2.3-1.1-2.3-2.3 0-1.3 1.1-2.3 2.3-2.3h24.3c1.3 0 2.3 1.1 2.3 2.3.1 1.2-1 2.3-2.3 2.3zM278.8 270.7h-24.3c-1.3 0-2.3-1.1-2.3-2.3 0-1.3 1.1-2.3 2.3-2.3h24.3c1.3 0 2.3 1.1 2.3 2.3.1 1.2-1 2.3-2.3 2.3z"/></g><g clip-path="url(#SVGID_2_)" fill="#FF3B57"><path d="M753.2 79.6h24.3c1.3 0 2.3 1.1 2.3 2.3 0 1.3-1.1 2.3-2.3 2.3h-24.3c-1.3 0-2.3-1.1-2.3-2.3-.1-1.3 1-2.3 2.3-2.3zM753.2 86.2h24.3c1.3 0 2.3 1.1 2.3 2.3 0 1.3-1.1 2.3-2.3 2.3h-24.3c-1.3 0-2.3-1.1-2.3-2.3-.1-1.3 1-2.3 2.3-2.3zM753.2 207.2h24.3c1.3 0 2.3 1.1 2.3 2.3 0 1.3-1.1 2.3-2.3 2.3h-24.3c-1.3 0-2.3-1.1-2.3-2.3-.1-1.2 1-2.3 2.3-2.3zM753.2 213.9h24.3c1.3 0 2.3 1.1 2.3 2.3 0 1.3-1.1 2.3-2.3 2.3h-24.3c-1.3 0-2.3-1.1-2.3-2.3-.1-1.3 1-2.3 2.3-2.3zM753.2 220.5h24.3c1.3 0 2.3 1.1 2.3 2.3 0 1.3-1.1 2.3-2.3 2.3h-24.3c-1.3 0-2.3-1.1-2.3-2.3-.1-1.3 1-2.3 2.3-2.3zM753.2 227.1h24.3c1.3 0 2.3 1.1 2.3 2.3 0 1.3-1.1 2.3-2.3 2.3h-24.3c-1.3 0-2.3-1.1-2.3-2.3-.1-1.2 1-2.3 2.3-2.3zM753.2 233.7h24.3c1.3 0 2.3 1.1 2.3 2.3 0 1.3-1.1 2.3-2.3 2.3h-24.3c-1.3 0-2.3-1.1-2.3-2.3-.1-1.2 1-2.3 2.3-2.3z"/></g><path fill="none" d="M0-1h1280v411H0z"/></svg>