<?xml version="1.0" encoding="utf-8"?>
<!-- Generator: Adobe Illustrator 17.0.0, SVG Export Plug-In . SVG Version: 6.00 Build 0)  -->
<!DOCTYPE svg PUBLIC "-//W3C//DTD SVG 1.1//EN" "http://www.w3.org/Graphics/SVG/1.1/DTD/svg11.dtd">
<svg version="1.1" id="Layer_1" xmlns="http://www.w3.org/2000/svg" xmlns:xlink="http://www.w3.org/1999/xlink" x="0px" y="0px"
	 width="620px" height="120.667px" viewBox="0 0 620 120.667" enable-background="new 0 0 620 120.667" xml:space="preserve">
<path fill="#E53935" d="M113.526,13.996c1.653-2.198,0.755-3.996-1.995-3.996H86.458c-2.75,0-6.352,1.798-8.005,3.996L7.761,108.004
	C6.108,110.202,7.006,112,9.756,112h25.073c2.75,0,6.352-1.798,8.005-3.996L113.526,13.996z"/>
<g>
	<path fill="#E53935" d="M154.513,108.021c1.665,2.188,0.778,3.979-1.972,3.979h-26.105c-2.75,0-6.363-1.791-8.028-3.979
		L85.529,64.814c-1.665-2.188-1.67-5.773-0.01-7.965l14.949-19.745l50.659,66.468L154.513,108.021z"/>
	<path fill="#333333" d="M154.073,13.986l-32.45,42.863c-1.66,2.193-1.655,5.777,0.01,7.965l0.104,0.137
		c-0.011,0.004-0.027,0.005-0.04,0.008l-21.231-27.856l17.501-23.117c1.66-2.193,5.268-3.986,8.018-3.986h26.105
		C154.841,10,155.733,11.794,154.073,13.986z"/>
</g>
<g>
	<g>
		<path fill="#222222" d="M121.624,56.849c-1.66,2.193-1.655,5.777,0.01,7.965l0.104,0.137c-0.011,0.004-0.027,0.005-0.04,0.008
			l-21.23-27.856l23.163,17.094L121.624,56.849z"/>
	</g>
</g>
<g enable-background="new    ">
	<path fill="#333333" d="M191.74,84.942h-7.986v-51.84h7.986v30.123l14.011-16.883h11.068l-17.793,19.335l17.793,19.265h-10.789
		L191.74,68.339V84.942z"/>
	<path fill="#333333" d="M238.815,85.573c-5.604,0-10.158-1.821-13.66-5.465c-3.503-3.643-5.254-8.477-5.254-14.501
		s1.774-10.846,5.324-14.466c3.549-3.619,8.137-5.429,13.766-5.429c5.627,0,10.193,1.74,13.695,5.219
		c3.502,3.479,5.254,8.021,5.254,13.625c0,1.355-0.094,2.616-0.28,3.783h-29.563c0.186,3.223,1.272,5.779,3.258,7.671
		c1.984,1.892,4.471,2.837,7.46,2.837c4.343,0,7.402-1.797,9.177-5.394h8.616c-1.168,3.549-3.292,6.456-6.375,8.721
		C247.151,84.441,243.344,85.573,238.815,85.573z M246.451,55.274c-2.056-1.891-4.553-2.837-7.496-2.837s-5.406,0.946-7.391,2.837
		c-1.985,1.892-3.117,4.426-3.397,7.602h21.436C249.556,59.7,248.505,57.166,246.451,55.274z"/>
	<path fill="#333333" d="M265.785,84.942v-51.84h7.986v51.84H265.785z"/>
	<path fill="#333333" d="M286.871,79.933c-3.503-3.759-5.254-8.569-5.254-14.431c0-5.86,1.739-10.624,5.219-14.291
		c3.479-3.666,7.811-5.499,12.995-5.499c3.036,0,5.709,0.689,8.021,2.066c2.312,1.378,4.098,3.188,5.359,5.429v-6.865h8.056v38.6
		h-8.056v-7.216c-1.309,2.382-3.107,4.285-5.395,5.71c-2.289,1.425-4.951,2.137-7.986,2.137
		C294.692,85.573,290.373,83.693,286.871,79.933z M309.743,75.099c2.312-2.357,3.468-5.521,3.468-9.492
		c0-3.969-1.156-7.121-3.468-9.457c-2.312-2.335-5.056-3.503-8.231-3.503c-3.177,0-5.919,1.146-8.231,3.433
		c-2.312,2.289-3.468,5.419-3.468,9.388c0,3.97,1.156,7.157,3.468,9.563c2.312,2.405,5.055,3.607,8.231,3.607
		C304.687,78.637,307.431,77.458,309.743,75.099z"/>
	<path fill="#333333" d="M330.022,57.411c0-3.269,1.378-6.035,4.134-8.301c2.755-2.265,6.375-3.397,10.857-3.397
		c4.484,0,8.045,1.109,10.684,3.327c2.639,2.219,4.051,5.243,4.238,9.072h-8.196c-0.14-1.915-0.806-3.409-1.997-4.483
		c-1.19-1.074-2.861-1.611-5.008-1.611c-2.148,0-3.83,0.479-5.045,1.436c-1.215,0.958-1.82,2.219-1.82,3.783
		c0,1.565,0.77,2.791,2.312,3.678c1.541,0.888,3.421,1.541,5.64,1.962c2.217,0.42,4.436,0.935,6.654,1.541
		c2.218,0.607,4.098,1.716,5.64,3.327c1.541,1.611,2.312,3.772,2.312,6.48c0,3.362-1.413,6.095-4.238,8.196
		c-2.826,2.102-6.457,3.152-10.893,3.152c-4.438,0-8.033-1.074-10.789-3.223c-2.756-2.147-4.273-5.207-4.553-9.177h8.266
		c0.141,1.915,0.841,3.409,2.102,4.483c1.262,1.074,2.978,1.61,5.148,1.61c2.172,0,3.899-0.478,5.185-1.436
		c1.284-0.957,1.927-2.229,1.927-3.818c0-1.587-0.771-2.825-2.313-3.713c-1.541-0.886-3.421-1.552-5.639-1.996
		c-2.219-0.443-4.438-0.957-6.655-1.541c-2.219-0.584-4.099-1.646-5.64-3.188S330.022,59.98,330.022,57.411z"/>
	<path fill="#333333" d="M387.887,52.858H378.5v21.366c0,1.447,0.338,2.486,1.016,3.117c0.676,0.63,1.832,0.945,3.467,0.945h4.904
		v6.655h-6.305c-7.426,0-11.139-3.572-11.139-10.718V52.858h-4.554v-6.516h4.554v-9.597h8.057v9.597h9.387V52.858z"/>
	<path fill="#333333" d="M422.213,46.342h7.985v38.6h-7.985v-6.095c-2.522,4.438-6.633,6.655-12.33,6.655
		c-4.344,0-7.928-1.437-10.753-4.309c-2.826-2.872-4.238-6.9-4.238-12.084V46.342h7.916v21.576c0,3.457,0.864,6.107,2.592,7.951
		c1.728,1.846,4.087,2.768,7.075,2.768s5.359-0.922,7.111-2.768c1.751-1.844,2.627-4.494,2.627-7.951V46.342z"/>
	<path fill="#333333" d="M459.41,52.858h-9.387v21.366c0,1.447,0.338,2.486,1.016,3.117c0.676,0.63,1.832,0.945,3.467,0.945h4.904
		v6.655h-6.305c-7.426,0-11.139-3.572-11.139-10.718V52.858h-4.554v-6.516h4.554v-9.597h8.057v9.597h9.387V52.858z"/>
	<path fill="#333333" d="M483.543,85.573c-5.629,0-10.264-1.833-13.906-5.5c-3.643-3.665-5.464-8.476-5.464-14.431
		c0-5.954,1.88-10.764,5.64-14.431c3.758-3.666,8.441-5.499,14.045-5.499c5.604,0,10.286,1.833,14.046,5.499
		c3.759,3.667,5.64,8.465,5.64,14.396c0,5.932-1.927,10.742-5.779,14.432C493.91,83.728,489.17,85.573,483.543,85.573z
		 M491.844,75.344c2.335-2.334,3.503-5.58,3.503-9.737c0-4.156-1.133-7.391-3.397-9.702c-2.266-2.312-5.01-3.468-8.231-3.468
		c-3.223,0-5.932,1.156-8.126,3.468c-2.196,2.312-3.293,5.559-3.293,9.737c0,4.181,1.074,7.426,3.223,9.737
		c2.147,2.312,4.822,3.468,8.021,3.468C486.74,78.847,489.508,77.68,491.844,75.344z"/>
	<path fill="#333333" d="M519.444,46.342v6.726c2.475-4.904,6.327-7.355,11.559-7.355v8.266h-2.031c-3.13,0-5.499,0.795-7.11,2.382
		c-1.611,1.589-2.417,4.344-2.417,8.267v20.315h-7.986v-38.6H519.444z"/>
	<path fill="#333333" d="M547.465,36.115c0,1.448-0.49,2.662-1.472,3.643c-0.98,0.98-2.184,1.472-3.607,1.472
		c-1.425,0-2.627-0.491-3.608-1.472c-0.98-0.98-1.471-2.194-1.471-3.643c0-1.447,0.49-2.662,1.471-3.643
		c0.981-0.981,2.184-1.472,3.608-1.472c1.424,0,2.627,0.49,3.607,1.472C546.975,33.453,547.465,34.667,547.465,36.115z
		 M538.357,84.942v-38.6h7.986v38.6H538.357z"/>
	<path fill="#333333" d="M559.443,79.933c-3.503-3.759-5.254-8.569-5.254-14.431c0-5.86,1.738-10.624,5.219-14.291
		c3.479-3.666,7.811-5.499,12.994-5.499c3.036,0,5.71,0.689,8.021,2.066c2.313,1.378,4.099,3.188,5.359,5.429v-6.865h8.057v38.6
		h-8.057v-7.216c-1.309,2.382-3.106,4.285-5.395,5.71c-2.289,1.425-4.95,2.137-7.986,2.137
		C567.266,85.573,562.945,83.693,559.443,79.933z M582.315,75.099c2.312-2.357,3.468-5.521,3.468-9.492
		c0-3.969-1.156-7.121-3.468-9.457c-2.312-2.335-5.056-3.503-8.231-3.503s-5.919,1.146-8.23,3.433
		c-2.313,2.289-3.469,5.419-3.469,9.388c0,3.97,1.156,7.157,3.469,9.563c2.312,2.405,5.055,3.607,8.23,3.607
		S580.004,77.458,582.315,75.099z"/>
	<path fill="#333333" d="M604.347,84.942v-51.84h7.986v51.84H604.347z"/>
</g>
</svg>
