<?xml version="1.0" encoding="utf-8"?>
<!-- Generator: Adobe Illustrator 17.0.0, SVG Export Plug-In . SVG Version: 6.00 Build 0)  -->
<!DOCTYPE svg PUBLIC "-//W3C//DTD SVG 1.1//EN" "http://www.w3.org/Graphics/SVG/1.1/DTD/svg11.dtd">
<svg version="1.1" id="Layer_1" xmlns="http://www.w3.org/2000/svg" xmlns:xlink="http://www.w3.org/1999/xlink" x="0px" y="0px"
	 width="620px" height="120.667px" viewBox="0 0 620 120.667" enable-background="new 0 0 620 120.667" xml:space="preserve">
<path fill="#F0F0F0" d="M113.859,13.837c1.653-2.198,0.755-3.996-1.995-3.996H86.791c-2.75,0-6.352,1.798-8.005,3.996L8.094,107.844
	c-1.653,2.198-0.755,3.996,1.995,3.996h25.073c2.75,0,6.352-1.798,8.005-3.996L113.859,13.837z"/>
<g>
	<path fill="#FFFFFF" d="M154.846,107.862c1.665,2.188,0.778,3.979-1.972,3.979h-26.105c-2.75,0-6.363-1.791-8.028-3.979
		L85.862,64.655c-1.665-2.188-1.67-5.773-0.01-7.965l14.949-19.745l50.659,66.468L154.846,107.862z"/>
	<path fill="#F0F0F0" d="M154.407,13.827l-32.45,42.863c-1.66,2.193-1.655,5.777,0.01,7.965l0.104,0.137
		c-0.011,0.004-0.027,0.005-0.04,0.008l-21.23-27.856l17.501-23.117c1.66-2.193,5.268-3.986,8.018-3.986h26.105
		C155.175,9.841,156.066,11.635,154.407,13.827z"/>
</g>
<g>
	<path fill="#E0E0E0" d="M121.957,56.69c-1.66,2.193-1.655,5.777,0.01,7.965l0.104,0.137c-0.011,0.004-0.027,0.005-0.04,0.008
		l-21.23-27.856l23.163,17.094L121.957,56.69z"/>
</g>
<g>
	<path fill="#FFFFFF" d="M208.828,29.377h9.428v0.316l-21.074,24.322l22.5,31.77v0.317h-8.953L192.27,59.641l-8.715,10.063v16.399
		h-7.289V29.377h7.289v29.234h0.317L208.828,29.377z"/>
	<path fill="#FFFFFF" d="M240.122,87.371c-5.704,0-10.406-1.953-14.102-5.862c-3.698-3.908-5.546-8.847-5.546-14.815
		c0-5.915,1.795-10.841,5.387-14.775c3.591-3.935,8.187-5.902,13.786-5.902c5.756,0,10.339,1.861,13.746,5.585
		c3.406,3.724,5.11,8.94,5.11,15.647l-0.079,0.792h-30.502c0.105,3.803,1.373,6.866,3.803,9.19c2.429,2.324,5.334,3.485,8.715,3.485
		c4.647,0,8.292-2.323,10.933-6.972l6.497,3.169c-1.743,3.275-4.16,5.837-7.25,7.686C247.53,86.446,244.03,87.371,240.122,87.371z
		 M228.476,62.018h22.262c-0.211-2.693-1.307-4.924-3.288-6.694c-1.981-1.769-4.635-2.654-7.962-2.654
		c-2.747,0-5.11,0.846-7.091,2.535C230.417,56.896,229.11,59.167,228.476,62.018z"/>
	<path fill="#FFFFFF" d="M272.446,29.377v56.726h-7.289V29.377H272.446z"/>
	<path fill="#FFFFFF" d="M295.66,46.015c5.387,0,9.638,1.439,12.755,4.317c3.116,2.879,4.675,6.827,4.675,11.845v23.926h-6.972
		v-5.388h-0.317c-3.011,4.437-7.025,6.655-12.042,6.655c-4.278,0-7.857-1.268-10.735-3.803c-2.879-2.535-4.317-5.704-4.317-9.507
		c0-4.014,1.518-7.21,4.555-9.587s7.091-3.564,12.161-3.564c4.331,0,7.896,0.792,10.696,2.376v-1.663
		c0-2.535-1.004-4.688-3.011-6.457c-2.008-1.77-4.357-2.654-7.052-2.654c-4.067,0-7.288,1.717-9.665,5.149l-6.417-4.04
		C283.511,48.55,288.74,46.015,295.66,46.015z M286.232,74.219c0,1.901,0.805,3.486,2.416,4.754c1.61,1.268,3.498,1.901,5.665,1.901
		c3.063,0,5.796-1.136,8.199-3.407c2.403-2.271,3.605-4.938,3.605-8.002c-2.271-1.795-5.441-2.693-9.508-2.693
		c-2.958,0-5.427,0.713-7.407,2.139C287.223,70.337,286.232,72.107,286.232,74.219z"/>
	<path fill="#FFFFFF" d="M350.643,75.329c0,3.381-1.479,6.232-4.437,8.556c-2.959,2.324-6.683,3.486-11.171,3.486
		c-3.909,0-7.342-1.018-10.3-3.05c-2.958-2.033-5.07-4.714-6.338-8.042l6.496-2.772c0.951,2.324,2.338,4.133,4.16,5.427
		c1.822,1.295,3.814,1.941,5.981,1.941c2.323,0,4.265-0.502,5.823-1.506c1.557-1.003,2.337-2.19,2.337-3.565
		c0-2.481-1.901-4.304-5.704-5.466l-6.655-1.664c-7.554-1.901-11.329-5.546-11.329-10.934c0-3.537,1.438-6.377,4.317-8.517
		c2.878-2.139,6.563-3.208,11.053-3.208c3.433,0,6.536,0.819,9.309,2.456c2.772,1.638,4.714,3.83,5.823,6.575l-6.497,2.693
		c-0.74-1.636-1.94-2.917-3.604-3.842c-1.664-0.924-3.525-1.387-5.585-1.387c-1.901,0-3.605,0.476-5.11,1.426
		c-1.505,0.951-2.258,2.113-2.258,3.486c0,2.218,2.086,3.803,6.259,4.754l5.862,1.505C346.786,65.583,350.643,69.465,350.643,75.329
		z"/>
	<path fill="#FFFFFF" d="M371.954,86.737c-3.169,0-5.797-0.977-7.883-2.932c-2.088-1.953-3.157-4.674-3.209-8.16V53.937h-6.813
		v-6.654h6.813V35.399h7.289v11.884h9.507v6.654h-9.507v19.331c0,2.589,0.501,4.346,1.505,5.269c1.003,0.925,2.14,1.387,3.407,1.387
		c0.58,0,1.148-0.065,1.703-0.198c0.555-0.131,1.069-0.303,1.545-0.515l2.298,6.496C376.707,86.393,374.489,86.737,371.954,86.737z"
		/>
	<path fill="#FFFFFF" d="M418.697,86.103h-6.972v-5.388h-0.317c-1.109,1.901-2.813,3.486-5.11,4.754
		c-2.297,1.268-4.688,1.901-7.17,1.901c-4.753,0-8.411-1.359-10.973-4.08c-2.563-2.72-3.842-6.588-3.842-11.606V47.283h7.288v23.926
		c0.159,6.338,3.354,9.507,9.587,9.507c2.904,0,5.334-1.175,7.288-3.525c1.954-2.35,2.932-5.162,2.932-8.438v-21.47h7.289V86.103z"
		/>
	<path fill="#FFFFFF" d="M443.335,86.737c-3.169,0-5.797-0.977-7.883-2.932c-2.088-1.953-3.157-4.674-3.209-8.16V53.937h-6.813
		v-6.654h6.813V35.399h7.289v11.884h9.507v6.654h-9.507v19.331c0,2.589,0.501,4.346,1.505,5.269c1.003,0.925,2.14,1.387,3.407,1.387
		c0.58,0,1.148-0.065,1.703-0.198c0.555-0.131,1.069-0.303,1.545-0.515l2.298,6.496C448.088,86.393,445.87,86.737,443.335,86.737z"
		/>
	<path fill="#FFFFFF" d="M453.396,66.693c0-5.968,1.874-10.906,5.625-14.815c3.803-3.908,8.582-5.862,14.34-5.862
		c5.756,0,10.51,1.954,14.261,5.862c3.803,3.909,5.704,8.848,5.704,14.815c0,6.021-1.901,10.96-5.704,14.815
		c-3.751,3.909-8.505,5.862-14.261,5.862c-5.758,0-10.537-1.953-14.34-5.862C455.271,77.6,453.396,72.662,453.396,66.693z
		 M460.685,66.693c0,4.173,1.215,7.554,3.645,10.141c2.429,2.589,5.439,3.882,9.032,3.882c3.591,0,6.602-1.293,9.031-3.882
		c2.429-2.587,3.645-5.968,3.645-10.141c0-4.12-1.216-7.474-3.645-10.062c-2.483-2.641-5.494-3.962-9.031-3.962
		c-3.539,0-6.55,1.321-9.032,3.962C461.899,59.219,460.685,62.573,460.685,66.693z"/>
	<path fill="#FFFFFF" d="M506.478,86.103h-7.289v-38.82h6.972v6.338h0.317c0.739-2.061,2.258-3.815,4.556-5.269
		c2.297-1.452,4.555-2.179,6.773-2.179c2.112,0,3.908,0.316,5.388,0.95l-2.219,7.052c-0.898-0.369-2.324-0.555-4.278-0.555
		c-2.747,0-5.137,1.109-7.17,3.327c-2.033,2.219-3.05,4.807-3.05,7.765V86.103z"/>
	<path fill="#FFFFFF" d="M537.375,33.893c0,1.426-0.502,2.642-1.505,3.645c-1.004,1.004-2.219,1.505-3.645,1.505
		s-2.642-0.501-3.645-1.505c-1.004-1.003-1.505-2.219-1.505-3.645s0.501-2.641,1.505-3.645c1.003-1.003,2.219-1.505,3.645-1.505
		s2.641,0.502,3.645,1.505C536.873,31.252,537.375,32.467,537.375,33.893z M535.87,47.283v38.82h-7.289v-38.82H535.87z"/>
	<path fill="#FFFFFF" d="M559.717,46.015c5.387,0,9.638,1.439,12.755,4.317c3.116,2.879,4.675,6.827,4.675,11.845v23.926h-6.972
		v-5.388h-0.317c-3.011,4.437-7.025,6.655-12.042,6.655c-4.278,0-7.857-1.268-10.735-3.803c-2.879-2.535-4.317-5.704-4.317-9.507
		c0-4.014,1.518-7.21,4.555-9.587s7.091-3.564,12.161-3.564c4.331,0,7.896,0.792,10.696,2.376v-1.663
		c0-2.535-1.004-4.688-3.011-6.457c-2.008-1.77-4.357-2.654-7.052-2.654c-4.067,0-7.288,1.717-9.665,5.149l-6.417-4.04
		C547.567,48.55,552.797,46.015,559.717,46.015z M550.289,74.219c0,1.901,0.805,3.486,2.416,4.754
		c1.61,1.268,3.498,1.901,5.665,1.901c3.063,0,5.796-1.136,8.199-3.407c2.403-2.271,3.605-4.938,3.605-8.002
		c-2.271-1.795-5.441-2.693-9.508-2.693c-2.958,0-5.427,0.713-7.407,2.139C551.279,70.337,550.289,72.107,550.289,74.219z"/>
	<path fill="#FFFFFF" d="M592.674,29.377v56.726h-7.289V29.377H592.674z"/>
</g>
</svg>
